<svg xmlns="http://www.w3.org/2000/svg" viewBox="0 0 720 380" width="720" height="380" font-family="-apple-system,BlinkMacSystemFont,Segoe UI,Helvetica,Arial,sans-serif">
<text x="70" y="26" font-size="15" font-weight="600" fill="#57606a">Peak context per request — same prompt, same model, same commit</text>
<text x="70" y="46" font-size="12" fill="#8b949e">3 paired runs · gpt-5.6-luna · 258,400-token window · commit 646c94a</text>
<line x1="70" y1="306.0" x2="696" y2="306.0" stroke="#d0d7de" stroke-width="1"/>
<text x="60" y="310.0" font-size="11" fill="#8b949e" text-anchor="end">0k</text>
<line x1="70" y1="245.5" x2="696" y2="245.5" stroke="#d0d7de" stroke-width="1"/>
<text x="60" y="249.5" font-size="11" fill="#8b949e" text-anchor="end">65k</text>
<line x1="70" y1="185.0" x2="696" y2="185.0" stroke="#d0d7de" stroke-width="1"/>
<text x="60" y="189.0" font-size="11" fill="#8b949e" text-anchor="end">130k</text>
<line x1="70" y1="124.5" x2="696" y2="124.5" stroke="#d0d7de" stroke-width="1"/>
<text x="60" y="128.5" font-size="11" fill="#8b949e" text-anchor="end">195k</text>
<line x1="70" y1="64.0" x2="696" y2="64.0" stroke="#d0d7de" stroke-width="1"/>
<text x="60" y="68.0" font-size="11" fill="#8b949e" text-anchor="end">260k</text>
<rect x="105.3" y="79.8" width="62" height="226.2" fill="#8b949e" rx="3"/>
<text x="136.3" y="72.8" font-size="11" font-weight="600" fill="#57606a" text-anchor="middle">243,012</text>
<rect x="181.3" y="227.9" width="62" height="78.1" fill="#3fb950" rx="3"/>
<text x="212.3" y="220.9" font-size="11" font-weight="600" fill="#57606a" text-anchor="middle">83,885</text>
<text x="174.3" y="326.0" font-size="12" fill="#57606a" text-anchor="middle">Run 1</text>
<text x="174.3" y="344.0" font-size="12" font-weight="600" fill="#3fb950" text-anchor="middle">−65%</text>
<rect x="314.0" y="80.7" width="62" height="225.3" fill="#8b949e" rx="3"/>
<text x="345.0" y="73.7" font-size="11" font-weight="600" fill="#57606a" text-anchor="middle">242,057</text>
<rect x="390.0" y="187.0" width="62" height="119.0" fill="#3fb950" rx="3"/>
<text x="421.0" y="180.0" font-size="11" font-weight="600" fill="#57606a" text-anchor="middle">127,873</text>
<text x="383.0" y="326.0" font-size="12" fill="#57606a" text-anchor="middle">Run 2</text>
<text x="383.0" y="344.0" font-size="12" font-weight="600" fill="#3fb950" text-anchor="middle">−47%</text>
<rect x="522.7" y="84.3" width="62" height="221.7" fill="#8b949e" rx="3"/>
<text x="553.7" y="77.3" font-size="11" font-weight="600" fill="#57606a" text-anchor="middle">238,141</text>
<rect x="598.7" y="190.7" width="62" height="115.3" fill="#3fb950" rx="3"/>
<text x="629.7" y="183.7" font-size="11" font-weight="600" fill="#57606a" text-anchor="middle">123,900</text>
<text x="591.7" y="326.0" font-size="12" fill="#57606a" text-anchor="middle">Run 3</text>
<text x="591.7" y="344.0" font-size="12" font-weight="600" fill="#3fb950" text-anchor="middle">−48%</text>
<rect x="70" y="358" width="11" height="11" fill="#8b949e" rx="2"/><text x="87" y="367" font-size="11" fill="#8b949e">Codex (no pruning)</text>
<rect x="220" y="358" width="11" height="11" fill="#3fb950" rx="2"/><text x="237" y="367" font-size="11" fill="#8b949e">Elpis (pruning)</text>
</svg>